# Blender v2.79 (sub 0) OBJ File: ''
# www.blender.org
mtllib FieldBorder.mtl
o FieldBorder
v 0.400000 0.025000 0.000000
v 0.380000 0.050000 0.000000
v 0.340000 0.050000 0.000000
v 0.320000 0.025000 0.000000
v 0.400000 0.000000 0.000000
v 0.400000 0.025000 -0.129409
v 0.380000 0.050000 -0.116469
v 0.340000 0.050000 -0.090587
v 0.320000 0.025000 -0.077646
v 0.400000 0.000000 -0.116469
v 0.400000 0.025000 -0.250000
v 0.380000 0.050000 -0.225000
v 0.340000 0.050000 -0.175000
v 0.320000 0.025000 -0.150000
v 0.400000 0.000000 -0.225000
v 0.400000 0.025000 -0.400000
v 0.360000 0.050000 -0.360000
v 0.280000 0.050000 -0.280000
v 0.240000 0.025000 -0.240000
v 0.400000 0.000000 -0.400000
v 0.250000 0.025000 -0.400000
v 0.225000 0.050000 -0.380000
v 0.175000 0.050000 -0.340000
v 0.150000 0.025000 -0.320000
v 0.225000 0.000000 -0.400000
v 0.129410 0.025000 -0.400000
v 0.116469 0.050000 -0.380000
v 0.090587 0.050000 -0.340000
v 0.077646 0.025000 -0.320000
v 0.116469 0.000000 -0.400000
v 0.000000 0.025000 -0.400000
v 0.000000 0.050000 -0.380000
v 0.000000 0.050000 -0.340000
v 0.000000 0.025000 -0.320000
v 0.000000 0.000000 -0.400000
v -0.129409 0.025000 -0.400000
v -0.116469 0.050000 -0.380000
v -0.090587 0.050000 -0.340000
v -0.077646 0.025000 -0.320000
v -0.116469 0.000000 -0.400000
v -0.250000 0.025000 -0.400000
v -0.225000 0.050000 -0.380000
v -0.175000 0.050000 -0.340000
v -0.150000 0.025000 -0.320000
v -0.225000 0.000000 -0.400000
v -0.400000 0.025000 -0.400000
v -0.360000 0.050000 -0.360000
v -0.280000 0.050000 -0.280000
v -0.240000 0.025000 -0.240000
v -0.400000 0.000000 -0.400000
v -0.400000 0.025000 -0.250000
v -0.380000 0.050000 -0.225000
v -0.340000 0.050000 -0.175000
v -0.320000 0.025000 -0.150000
v -0.400000 0.000000 -0.225000
v -0.400000 0.025000 -0.129409
v -0.380000 0.050000 -0.116469
v -0.340000 0.050000 -0.090587
v -0.320000 0.025000 -0.077646
v -0.400000 0.000000 -0.116469
v -0.400000 0.025000 -0.000000
v -0.380000 0.050000 -0.000000
v -0.340000 0.050000 -0.000000
v -0.320000 0.025000 -0.000000
v -0.400000 0.000000 -0.000000
v -0.400000 0.025000 0.129409
v -0.380000 0.050000 0.116469
v -0.338074 0.050000 0.090587
v -0.320000 0.025000 0.077646
v -0.400000 0.000000 0.116469
v -0.400000 0.025000 0.250000
v -0.380000 0.050000 0.225000
v -0.340000 0.050000 0.175000
v -0.320000 0.025000 0.150000
v -0.400000 0.000000 0.225000
v -0.400000 0.025000 0.400000
v -0.360000 0.050000 0.360000
v -0.280000 0.050000 0.280000
v -0.240000 0.025000 0.240000
v -0.400000 0.000000 0.400000
v -0.250000 0.025000 0.400000
v -0.225000 0.050000 0.380000
v -0.175000 0.050000 0.340000
v -0.150000 0.025000 0.320000
v -0.225000 0.000000 0.400000
v -0.129410 0.025000 0.400000
v -0.116469 0.050000 0.380000
v -0.090587 0.050000 0.340000
v -0.077646 0.025000 0.320000
v -0.116469 0.000000 0.400000
v 0.000000 0.025000 0.400000
v 0.000000 0.050000 0.380000
v 0.000000 0.050000 0.340000
v 0.000000 0.025000 0.320000
v 0.000000 0.000000 0.400000
v 0.129409 0.025000 0.400000
v 0.116468 0.050000 0.380000
v 0.090587 0.050000 0.340000
v 0.077646 0.025000 0.320000
v 0.116468 0.000000 0.400000
v 0.250000 0.025000 0.400000
v 0.225000 0.050000 0.380000
v 0.175000 0.050000 0.340000
v 0.150000 0.025000 0.320000
v 0.225000 0.000000 0.400000
v 0.400000 0.025000 0.400000
v 0.360000 0.050000 0.360000
v 0.280000 0.050000 0.280000
v 0.240000 0.025000 0.240000
v 0.400000 0.000000 0.400000
v 0.400000 0.025000 0.250000
v 0.380000 0.050000 0.225000
v 0.340000 0.050000 0.175000
v 0.320000 0.025000 0.150000
v 0.400000 0.000000 0.225000
v 0.400000 0.025000 0.129409
v 0.380000 0.050000 0.116468
v 0.340000 0.050000 0.090587
v 0.320000 0.025000 0.077646
v 0.400000 0.000000 0.116468
vt 0.000000 0.000000
vt 1.000000 0.000000
vt 1.000000 1.000000
vt 0.000000 1.000000
vt 0.000000 0.000000
vt 1.000000 0.000000
vt 1.000000 1.000000
vt 0.000000 1.000000
vt 0.000000 0.000000
vt 1.000000 0.000000
vt 1.000000 1.000000
vt 0.000000 1.000000
vt 0.000000 0.000000
vt 1.000000 0.000000
vt 1.000000 1.000000
vt 0.000000 1.000000
vt 0.000000 0.000000
vt 1.000000 0.000000
vt 1.000000 1.000000
vt 0.000000 0.000000
vt 1.000000 0.000000
vt 1.000000 1.000000
vt 0.000000 1.000000
vt 0.000000 0.000000
vt 1.000000 0.000000
vt 0.000000 1.000000
vt 0.000000 0.000000
vt 1.000000 0.000000
vt 1.000000 1.000000
vt 0.000000 1.000000
vt 0.000000 0.000000
vt 1.000000 1.000000
vt 0.000000 1.000000
vt 0.000000 0.000000
vt 1.000000 0.000000
vt 1.000000 1.000000
vt 0.000000 1.000000
vt 1.000000 0.000000
vt 1.000000 1.000000
vt 0.000000 0.000000
vt 1.000000 0.000000
vt 1.000000 1.000000
vt 0.000000 1.000000
vt 0.000000 0.000000
vt 1.000000 0.000000
vt 0.000000 1.000000
vt 0.000000 0.000000
vt 1.000000 0.000000
vt 1.000000 1.000000
vt 1.000000 0.000000
vt 0.000000 1.000000
vt 0.000000 0.000000
vt 1.000000 0.000000
vt 1.000000 1.000000
vt 0.000000 0.000000
vt 1.000000 0.000000
vt 1.000000 1.000000
vt 0.000000 1.000000
vt 0.000000 0.000000
vt 1.000000 0.000000
vt 1.000000 1.000000
vt 0.000000 1.000000
vt 0.000000 0.000000
vt 1.000000 0.000000
vt 1.000000 1.000000
vt 0.000000 1.000000
vt 0.000000 0.000000
vt 1.000000 1.000000
vt 0.000000 1.000000
vt 0.000000 0.000000
vt 1.000000 0.000000
vt 1.000000 1.000000
vt 0.000000 1.000000
vt 0.000000 0.000000
vt 1.000000 0.000000
vt 0.000000 1.000000
vt 0.000000 0.000000
vt 0.000000 1.000000
vt 0.000000 0.000000
vt 1.000000 0.000000
vt 0.000000 0.000000
vt 1.000000 0.000000
vt 1.000000 1.000000
vt 0.000000 1.000000
vt 0.000000 0.000000
vt 1.000000 1.000000
vt 1.000000 0.000000
vt 1.000000 1.000000
vt 0.000000 1.000000
vt 0.000000 0.000000
vt 1.000000 0.000000
vt 1.000000 1.000000
vt 0.000000 1.000000
vt 1.000000 0.000000
vt 1.000000 1.000000
vt 0.000000 1.000000
vt 0.000000 0.000000
vt 1.000000 0.000000
vt 1.000000 1.000000
vt 0.000000 1.000000
vt 0.000000 0.000000
vt 1.000000 1.000000
vt 0.000000 1.000000
vt 0.000000 0.000000
vt 1.000000 1.000000
vt 0.000000 0.000000
vt 1.000000 0.000000
vt 1.000000 1.000000
vt 0.000000 1.000000
vt 0.000000 0.000000
vt 1.000000 0.000000
vt 1.000000 1.000000
vt 0.000000 1.000000
vt 0.000000 0.000000
vt 1.000000 0.000000
vt 0.000000 0.000000
vt 1.000000 0.000000
vt 0.000000 1.000000
vt 0.000000 0.000000
vt 1.000000 1.000000
vt 0.000000 0.000000
vt 1.000000 1.000000
vt 0.000000 1.000000
vt 1.000000 0.000000
vt 1.000000 1.000000
vt 0.000000 1.000000
vt 1.000000 1.000000
vt 0.000000 1.000000
vt 1.000000 0.000000
vt 1.000000 1.000000
vt 0.000000 1.000000
vt 0.000000 0.000000
vt 1.000000 0.000000
vt 1.000000 1.000000
vt 0.000000 1.000000
vt 0.000000 0.000000
vt 1.000000 0.000000
vt 1.000000 1.000000
vt 0.000000 1.000000
vt 0.000000 0.000000
vt 1.000000 0.000000
vt 0.000000 0.000000
vt 1.000000 0.000000
vt 0.000000 1.000000
vt 0.000000 0.000000
vt 1.000000 0.000000
vt 1.000000 1.000000
vt 0.000000 1.000000
vt 0.000000 0.000000
vt 1.000000 0.000000
vt 1.000000 1.000000
vt 0.000000 1.000000
vt 0.000000 0.000000
vt 1.000000 0.000000
vt 0.000000 0.000000
vt 1.000000 0.000000
vt 1.000000 1.000000
vt 0.000000 0.000000
vt 1.000000 0.000000
vt 1.000000 1.000000
vt 1.000000 0.000000
vt 0.000000 1.000000
vt 0.000000 0.000000
vt 1.000000 0.000000
vt 1.000000 1.000000
vt 0.000000 0.000000
vt 1.000000 1.000000
vt 0.000000 1.000000
vt 0.000000 0.000000
vt 1.000000 0.000000
vt 1.000000 1.000000
vt 0.000000 1.000000
vt 0.000000 0.000000
vt 1.000000 0.000000
vt 1.000000 1.000000
vt 0.000000 1.000000
vt 0.000000 0.000000
vt 1.000000 0.000000
vt 1.000000 1.000000
vt 0.000000 1.000000
vt 1.000000 0.000000
vt 1.000000 1.000000
vt 0.000000 0.000000
vt 0.000000 1.000000
vt 0.000000 0.000000
vt 1.000000 0.000000
vt 1.000000 1.000000
vt 0.000000 1.000000
vt 0.000000 0.000000
vt 0.000000 1.000000
vt 0.000000 0.000000
vt 1.000000 0.000000
vt 1.000000 1.000000
vt 0.000000 1.000000
vt 0.000000 0.000000
vt 1.000000 0.000000
vt 1.000000 1.000000
vt 0.000000 1.000000
vt 1.000000 1.000000
vt 0.000000 1.000000
vt 0.000000 0.000000
vt 1.000000 0.000000
vt 1.000000 1.000000
vt 0.000000 1.000000
vt 0.000000 0.000000
vt 1.000000 0.000000
vt 1.000000 1.000000
vt 0.000000 1.000000
vt 1.000000 1.000000
vt 0.000000 1.000000
vt 0.000000 0.000000
vt 1.000000 1.000000
vt 0.000000 1.000000
vt 0.000000 0.000000
vt 1.000000 0.000000
vt 0.000000 0.000000
vt 1.000000 0.000000
vt 1.000000 1.000000
vt 0.000000 1.000000
vt 1.000000 0.000000
vt 1.000000 1.000000
vt 0.000000 0.000000
vt 1.000000 0.000000
vt 1.000000 1.000000
vt 0.000000 1.000000
vt 0.000000 0.000000
vt 1.000000 0.000000
vt 1.000000 1.000000
vt 0.000000 1.000000
vt 0.000000 0.000000
vt 0.000000 0.000000
vt 1.000000 0.000000
vt 1.000000 1.000000
vt 0.000000 1.000000
vt 0.000000 0.000000
vt 1.000000 0.000000
vt 1.000000 1.000000
vt 0.000000 0.000000
vt 1.000000 0.000000
vt 1.000000 1.000000
vt 0.000000 1.000000
vt 0.000000 0.000000
vt 1.000000 0.000000
vt 0.000000 0.000000
vt 1.000000 1.000000
vt 0.000000 1.000000
vt 0.000000 0.000000
vt 1.000000 0.000000
vt 1.000000 1.000000
vt 0.000000 1.000000
vt 0.000000 0.000000
vt 1.000000 0.000000
vt 1.000000 1.000000
vt 0.000000 1.000000
vt 0.000000 0.000000
vt 0.000000 1.000000
vt 0.000000 0.000000
vt 1.000000 0.000000
vt 0.000000 1.000000
vt 0.000000 0.000000
vt 1.000000 0.000000
vt 1.000000 1.000000
vt 0.000000 0.000000
vt 0.000000 1.000000
vt 1.000000 0.000000
vt 1.000000 1.000000
vt 1.000000 0.000000
vt 1.000000 1.000000
vt 0.000000 1.000000
vt 1.000000 0.000000
vt 1.000000 1.000000
vt 0.000000 1.000000
vt 1.000000 0.000000
vt 1.000000 1.000000
vt 0.000000 1.000000
vt 0.000000 0.000000
vt 1.000000 0.000000
vt 1.000000 1.000000
vt 0.000000 0.000000
vt 0.000000 0.000000
vt 0.000000 1.000000
vt 1.000000 0.000000
vt 1.000000 1.000000
vn 0.7809 0.6247 0.0000
vn 0.0000 1.0000 0.0000
vn 0.0000 0.0000 -1.0000
vn -0.7809 0.6247 0.0000
vn 1.0000 -0.0000 0.0000
vn -0.4060 0.8661 0.2915
vn 0.6117 0.7899 -0.0429
vn -0.2915 0.8661 0.4060
vn 0.0000 0.6247 -0.7809
vn 0.0429 0.7899 -0.6117
vn 0.0000 0.6247 0.7809
vn -0.0429 0.7899 -0.6117
vn -1.0000 0.0000 0.0000
vn 0.2915 0.8661 0.4060
vn 0.4060 0.8661 0.2915
vn -0.6117 0.7899 -0.0429
vn -0.6117 0.7899 0.0429
vn 0.7944 0.6073 -0.0091
vn 0.7991 0.6011 0.0098
vn 0.4060 0.8661 -0.2915
vn 0.0000 0.0000 1.0000
vn 0.2915 0.8661 -0.4060
vn -0.0429 0.7899 0.6117
vn 0.6117 0.7899 0.0429
vn 0.0429 0.7899 0.6117
vn -0.2915 0.8661 -0.4060
vn -0.4060 0.8661 -0.2915
usemtl BaseMaterial
s off
f 2/1/1 1/2/1 6/3/1 7/4/1
f 8/5/2 7/6/2 12/7/2 13/8/2
f 31/9/3 35/10/3 40/11/3 36/12/3
f 13/13/4 14/14/4 9/15/4 8/16/4
f 12/17/2 17/18/2 18/19/2 13/8/2
f 10/20/5 6/21/5 1/22/5 5/23/5
f 14/24/6 13/25/6 18/19/6 19/26/6
f 6/27/5 10/28/5 15/29/5 11/30/5
f 18/31/2 17/18/2 22/32/2 23/33/2
f 17/34/7 12/35/7 11/36/7 16/37/7
f 18/31/8 23/38/8 24/39/8 19/26/8
f 36/40/9 37/41/9 32/42/9 31/43/9
f 16/44/10 21/45/10 22/32/10 17/46/10
f 40/47/3 45/48/3 41/49/3 36/12/3
f 16/44/5 11/50/5 15/29/5 20/51/5
f 22/52/2 27/53/2 28/54/2 23/33/2
f 21/55/9 26/56/9 27/57/9 22/58/9
f 25/59/3 30/60/3 26/61/3 21/62/3
f 47/63/2 52/64/2 53/65/2 48/66/2
f 27/67/9 26/56/9 31/68/9 32/69/9
f 33/70/11 38/71/11 39/72/11 34/73/11
f 35/74/3 31/75/3 26/61/3 30/76/3
f 28/77/2 27/53/2 32/42/2 33/78/2
f 34/79/11 29/80/11 28/54/11 33/78/11
f 46/81/3 41/82/3 45/83/3 50/84/3
f 37/85/2 38/71/2 33/86/2 32/69/2
f 46/81/12 47/87/12 42/88/12 41/89/12
f 51/90/13 46/91/13 50/92/13 55/93/13
f 37/85/2 42/94/2 43/95/2 38/96/2
f 52/97/4 51/98/4 56/99/4 57/100/4
f 56/101/13 51/98/13 55/102/13 60/103/13
f 42/104/9 37/41/9 36/105/9 41/89/9
f 58/106/1 59/107/1 54/108/1 53/109/1
f 38/110/11 43/111/11 44/112/11 39/113/11
f 49/114/14 44/115/14 43/95/14 48/66/14
f 48/116/15 53/117/15 54/108/15 49/118/15
f 43/119/2 42/94/2 47/120/2 48/66/2
f 53/121/2 52/64/2 57/122/2 58/123/2
f 58/106/2 57/124/2 62/125/2 63/126/2
f 52/97/16 47/87/16 46/127/16 51/128/16
f 56/101/13 60/129/13 65/130/13 61/131/13
f 59/132/1 58/133/1 63/134/1 64/135/1
f 76/136/17 77/137/17 72/138/17 71/139/17
f 66/140/4 67/141/4 62/125/4 61/131/4
f 62/142/4 57/124/4 56/99/4 61/131/4
f 66/140/4 71/143/4 72/138/4 67/144/4
f 63/145/2 62/146/2 67/147/2 68/148/2
f 70/149/13 75/150/13 71/151/13 66/152/13
f 69/153/18 64/154/18 63/134/18 68/148/18
f 75/155/13 80/156/13 76/157/13 71/139/13
f 73/158/19 74/159/19 69/160/19 68/148/19
f 66/140/13 61/161/13 65/130/13 70/162/13
f 72/163/2 73/164/2 68/165/2 67/144/2
f 79/166/20 74/159/20 73/167/20 78/168/20
f 100/169/21 96/170/21 91/171/21 95/172/21
f 83/173/2 78/174/2 77/175/2 82/176/2
f 92/177/11 87/178/11 86/179/11 91/180/11
f 83/173/22 84/181/22 79/182/22 78/168/22
f 78/183/2 73/164/2 72/138/2 77/184/2
f 97/185/2 102/186/2 103/187/2 98/188/2
f 82/189/23 77/137/23 76/157/23 81/190/23
f 88/191/2 83/192/2 82/193/2 87/194/2
f 89/195/9 88/196/9 93/197/9 94/198/9
f 89/195/9 84/181/9 83/199/9 88/200/9
f 81/201/21 76/202/21 80/203/21 85/204/21
f 86/205/21 81/206/21 85/207/21 90/208/21
f 97/185/11 96/170/11 101/209/11 102/210/11
f 86/205/11 87/178/11 82/193/11 81/190/11
f 91/211/11 96/170/11 97/212/11 92/213/11
f 87/214/2 92/215/2 93/197/2 88/200/2
f 101/216/21 105/217/21 110/218/21 106/219/21
f 91/211/21 86/220/21 90/221/21 95/172/21
f 112/222/24 107/223/24 106/224/24 111/225/24
f 98/226/2 93/227/2 92/228/2 97/229/2
f 107/230/25 102/186/25 101/209/25 106/219/25
f 119/231/4 114/232/4 113/233/4 118/234/4
f 93/235/9 98/236/9 99/237/9 94/198/9
f 96/238/21 100/239/21 105/240/21 101/241/21
f 103/242/9 104/243/9 99/237/9 98/188/9
f 102/244/2 107/223/2 108/245/2 103/246/2
f 113/247/2 108/248/2 107/249/2 112/250/2
f 116/251/5 111/252/5 115/253/5 120/254/5
f 109/255/26 104/243/26 103/187/26 108/256/26
f 111/257/5 106/258/5 110/218/5 115/259/5
f 1/260/5 116/261/5 120/262/5 5/23/5
f 117/263/1 116/261/1 1/22/1 2/264/1
f 116/251/1 117/265/1 112/266/1 111/225/1
f 113/247/2 112/267/2 117/268/2 118/234/2
f 109/255/27 108/248/27 113/233/27 114/269/27
f 119/231/4 118/270/4 3/271/4 4/272/4
f 8/5/4 9/273/4 4/274/4 3/275/4
f 20/276/3 25/277/3 21/278/3 16/37/3
f 28/77/11 29/80/11 24/39/11 23/33/11
f 3/279/2 118/270/2 117/268/2 2/264/2
f 7/280/1 6/21/1 11/36/1 12/281/1
f 3/279/2 2/282/2 7/283/2 8/16/2
