# Blender v2.79 (sub 0) OBJ File: 'FieldBorder.blend'
# www.blender.org
mtllib FieldBorder.mtl
o FieldBorder
v 0.490000 0.010000 -0.343000
v 0.453250 0.010000 -0.343000
v 0.490000 0.010000 -0.490000
v 0.343000 0.010000 -0.490000
v 0.343000 0.010000 -0.453250
v -0.343000 0.010000 -0.490000
v -0.343000 0.010000 -0.453250
v -0.490000 0.010000 -0.490000
v -0.490000 0.010000 -0.343000
v -0.453250 0.010000 -0.343000
v -0.490000 0.010000 0.343000
v -0.453250 0.010000 0.343000
v -0.490000 0.010000 0.490000
v -0.343000 0.010000 0.490000
v -0.343000 0.010000 0.453250
v 0.343000 0.010000 0.490000
v 0.343000 0.010000 0.453250
v 0.490000 0.010000 0.490000
v 0.490000 0.010000 0.343000
v 0.453250 0.010000 0.343000
vt 0.206107 0.095492
vt 0.500000 1.000000
vt 0.793893 0.095491
vt 0.975528 0.654508
vt 0.206107 0.095492
vt 0.024472 0.654509
vt 0.793893 0.095491
vt 0.206107 0.095492
vt 0.024472 0.654509
vt 0.975528 0.654508
vt 0.206107 0.095492
vt 0.024472 0.654509
vt 1.000000 0.000000
vt 0.000000 1.000000
vt 0.000000 0.000000
vt 1.000000 0.000000
vt 0.000000 1.000000
vt 0.000000 0.000000
vt 1.000000 0.000000
vt 0.000000 1.000000
vt 0.000000 0.000000
vt 1.000000 0.000000
vt 0.000000 1.000000
vt 0.000000 0.000000
vt 0.024472 0.654509
vt 0.975528 0.654508
vt 0.500000 1.000000
vt 0.793893 0.095491
vt 0.500000 1.000000
vt 0.975528 0.654508
vt 0.500000 1.000000
vt 0.793893 0.095491
vt 1.000000 1.000000
vt 1.000000 1.000000
vt 1.000000 1.000000
vt 1.000000 1.000000
vn 0.0000 1.0000 0.0000
usemtl BaseMaterial
s off
f 2/1/1 3/2/1 5/3/1
f 8/4/1 10/5/1 7/6/1
f 12/7/1 11/8/1 13/9/1
f 18/10/1 20/11/1 17/12/1
f 2/13/1 19/14/1 1/15/1
f 7/16/1 4/17/1 6/18/1
f 11/19/1 10/20/1 9/21/1
f 16/22/1 15/23/1 14/24/1
f 1/25/1 3/2/1 2/1/1
f 3/2/1 4/26/1 5/3/1
f 7/6/1 6/27/1 8/4/1
f 8/4/1 9/28/1 10/5/1
f 13/9/1 14/29/1 15/30/1
f 15/30/1 12/7/1 13/9/1
f 17/12/1 16/31/1 18/10/1
f 18/10/1 19/32/1 20/11/1
f 2/13/1 20/33/1 19/14/1
f 7/16/1 5/34/1 4/17/1
f 11/19/1 12/35/1 10/20/1
f 16/22/1 17/36/1 15/23/1
