# Blender v2.79 (sub 0) OBJ File: 'StoneWall.blend'
# www.blender.org
mtllib StoneWall.mtl
o Wall
v 0.500000 1.300000 -0.500000
v 0.500000 -0.500000 -0.500000
v 0.500000 1.300000 0.500000
v -0.500000 1.300000 -0.500000
v -0.500000 1.300000 0.500000
v -0.500000 -0.500000 0.500000
v 0.500000 -0.500000 0.500000
v -0.500000 -0.500000 -0.500000
v -0.500000 0.500000 -0.500000
v -0.500000 0.500000 0.500000
v 0.500000 0.500000 -0.500000
v 0.500000 0.500000 0.500000
v -0.500000 1.300000 -0.300000
v 0.500000 1.300000 -0.300000
v -0.500000 1.300000 0.300000
v 0.500000 1.300000 0.300000
v 0.300000 1.300000 -0.500000
v 0.300000 1.300000 0.500000
v 0.300000 1.300000 -0.300000
v 0.300000 1.300000 0.300000
v -0.300000 1.300000 -0.500000
v -0.300000 1.300000 0.500000
v -0.300000 1.300000 0.300000
v -0.300000 1.300000 -0.300000
v 0.100000 1.300000 -0.500000
v 0.100000 1.300000 -0.300000
v -0.100000 1.300000 -0.300000
v -0.100000 1.300000 -0.500000
v 0.500000 1.300000 0.100000
v 0.300000 1.300000 0.100000
v 0.300000 1.300000 -0.100000
v 0.500000 1.300000 -0.100000
v -0.300000 1.300000 0.100000
v -0.500000 1.300000 0.100000
v -0.500000 1.300000 -0.100000
v -0.300000 1.300000 -0.100000
v -0.100000 1.300000 0.500000
v -0.100000 1.300000 0.300000
v 0.100000 1.300000 0.500000
v 0.100000 1.300000 0.300000
v -0.500000 1.500000 -0.500000
v -0.500000 1.500000 -0.300000
v -0.300000 1.500000 -0.500000
v -0.300000 1.500000 -0.300000
v 0.100000 1.500000 -0.500000
v 0.100000 1.500000 -0.300000
v -0.100000 1.500000 -0.300000
v -0.100000 1.500000 -0.500000
v 0.500000 1.500000 -0.500000
v 0.500000 1.500000 -0.300000
v 0.300000 1.500000 -0.500000
v 0.300000 1.500000 -0.300000
v 0.500000 1.500000 0.100000
v 0.300000 1.500000 0.100000
v 0.300000 1.500000 -0.100000
v 0.500000 1.500000 -0.100000
v 0.500000 1.500000 0.500000
v 0.500000 1.500000 0.300000
v 0.300000 1.500000 0.500000
v 0.300000 1.500000 0.300000
v -0.100000 1.500000 0.500000
v -0.100000 1.500000 0.300000
v 0.100000 1.500000 0.500000
v 0.100000 1.500000 0.300000
v -0.500000 1.500000 0.500000
v -0.500000 1.500000 0.300000
v -0.300000 1.500000 0.500000
v -0.300000 1.500000 0.300000
v -0.300000 1.500000 0.100000
v -0.500000 1.500000 0.100000
v -0.500000 1.500000 -0.100000
v -0.300000 1.500000 -0.100000
v 0.300000 1.100000 -0.300000
v 0.300000 1.100000 0.300000
v -0.300000 1.100000 0.300000
v -0.300000 1.100000 -0.300000
v 0.100000 1.100000 -0.300000
v -0.100000 1.100000 -0.300000
v 0.300000 1.100000 0.100000
v 0.300000 1.100000 -0.100000
v -0.300000 1.100000 0.100000
v -0.300000 1.100000 -0.100000
v -0.100000 1.100000 0.300000
v 0.100000 1.100000 0.300000
vt 1.000000 0.000000
vt 0.000000 1.000000
vt 0.000000 0.000000
vt 0.694043 0.863780
vt 0.833255 1.000000
vt 0.694043 1.000000
vt 1.000000 0.000000
vt 0.000000 1.000000
vt 0.000000 0.000000
vt 1.000000 0.000000
vt 0.000000 1.000000
vt 0.000000 1.000000
vt 0.000000 0.000000
vt 1.000000 0.000000
vt 0.000000 1.000000
vt 0.000000 0.000000
vt 1.000000 0.000000
vt 0.800000 0.779020
vt 0.600000 0.779020
vt 1.000000 0.000000
vt 0.800000 0.782034
vt 0.600000 0.782034
vt 1.000000 0.000000
vt 0.800000 0.782807
vt 0.600000 0.782807
vt 1.000000 0.000000
vt 0.800000 0.782748
vt 0.600000 0.782748
vt 0.772620 0.771895
vt 0.956913 0.587602
vt 0.956913 0.771895
vt 1.000000 0.782807
vt 0.800000 0.978509
vt 0.772620 0.219018
vt 0.588328 0.034726
vt 0.772620 0.034726
vt 0.772620 0.956187
vt 0.588328 0.771895
vt 0.447245 0.866647
vt 0.583662 0.733293
vt 0.583662 0.866647
vt 0.219744 0.403310
vt 0.035452 0.219018
vt 0.219744 0.219018
vt 0.290245 0.877827
vt 0.164782 1.000000
vt 0.164782 0.877827
vt 1.000000 0.977543
vt 0.800000 0.977543
vt 0.872243 0.839738
vt 0.718046 0.989891
vt 0.718046 0.839738
vt 0.404036 0.956187
vt 0.219744 0.771895
vt 0.404036 0.771895
vt 0.200000 1.000000
vt 0.000000 0.800000
vt 0.200000 0.800000
vt 0.772620 0.403310
vt 0.956913 0.219018
vt 0.956913 0.403310
vt 0.265887 0.832337
vt 0.103688 0.990894
vt 0.103688 0.832337
vt 0.400000 0.978435
vt 0.400000 0.782748
vt 0.219744 0.587602
vt 0.035452 0.771895
vt 0.035452 0.587602
vt 0.404036 0.219018
vt 0.219744 0.034726
vt 0.404036 0.034726
vt 0.447245 1.000000
vt 0.200000 0.782748
vt 0.000000 0.978435
vt 0.000000 0.782748
vt 0.276408 0.863780
vt 0.137196 1.000000
vt 0.137196 0.863780
vt 0.792098 0.877827
vt 0.666635 1.000000
vt 0.666635 0.877827
vt 0.600000 1.000000
vt 0.400000 0.800000
vt 0.600000 0.800000
vt 0.400000 0.977543
vt 0.400000 0.782034
vt 0.264395 0.830684
vt 0.100385 0.991158
vt 0.100385 0.830684
vt 0.554832 0.863780
vt 0.415620 1.000000
vt 0.415620 0.863780
vt 0.800000 1.000000
vt 1.000000 0.800000
vt 1.000000 1.000000
vt 0.309149 0.864000
vt 0.170151 1.000000
vt 0.170151 0.864000
vt 1.000000 0.779020
vt 0.800000 0.973775
vt 0.200000 0.782034
vt 0.000000 0.977543
vt 0.000000 0.782034
vt 0.800000 0.600000
vt 1.000000 0.400000
vt 1.000000 0.600000
vt 0.587144 0.864000
vt 0.448146 1.000000
vt 0.448146 0.864000
vt 0.737528 0.830549
vt 0.901687 0.991180
vt 0.737528 0.991180
vt 0.400000 0.973775
vt 0.400000 0.779020
vt 0.800000 0.200000
vt 1.000000 0.000000
vt 1.000000 0.200000
vt 0.310828 0.866647
vt 0.174411 1.000000
vt 0.174411 0.866647
vt 0.200000 0.779020
vt 0.000000 0.973775
vt 0.000000 0.779020
vt 0.865140 0.864000
vt 0.726142 1.000000
vt 0.726142 0.864000
vt 0.600000 0.200000
vt 0.400000 0.000000
vt 0.600000 0.000000
vt 0.920436 0.830684
vt 0.756426 0.991158
vt 0.756426 0.830684
vt 0.400000 0.978509
vt 0.400000 0.782807
vt 0.255456 0.839738
vt 0.101260 0.989891
vt 0.101260 0.839738
vt 0.200000 0.200000
vt 0.000000 0.000000
vt 0.200000 0.000000
vt 1.000000 0.782748
vt 0.800000 0.978435
vt 0.200000 0.782807
vt 0.000000 0.978509
vt 0.000000 0.782807
vt 0.856496 0.866647
vt 0.720079 1.000000
vt 0.720079 0.866647
vt 0.200000 0.400000
vt 0.000000 0.600000
vt 0.000000 0.400000
vt 0.245050 0.830549
vt 0.080891 0.991180
vt 0.080891 0.830549
vt 0.541171 0.877827
vt 0.415708 1.000000
vt 0.415708 0.877827
vt 0.752487 0.832337
vt 0.914687 0.990894
vt 0.752487 0.990894
vt 0.749229 0.577011
vt 0.407484 0.747883
vt 0.236612 0.577011
vt 0.694043 0.727560
vt 0.541171 0.755654
vt 0.720079 0.733293
vt 0.726142 0.728000
vt 0.448146 0.728000
vt 0.666635 0.755654
vt 0.310828 0.733293
vt 0.447245 0.733293
vt 0.276408 0.727560
vt 0.415620 0.727560
vt 0.587144 0.728000
vt 0.415708 0.755654
vt 0.554832 0.727560
vt 1.000000 1.000000
vt 0.833255 0.863780
vt 1.000000 1.000000
vt 1.000000 1.000000
vt 1.000000 1.000000
vt 1.000000 1.000000
vt 0.000000 0.000000
vt 0.000000 0.000000
vt 1.000000 0.782034
vt 0.000000 0.000000
vt 0.000000 0.000000
vt 0.772620 0.587602
vt 1.000000 0.978509
vt 0.588328 0.219018
vt 0.588328 0.956187
vt 0.035452 0.403310
vt 0.290245 1.000000
vt 0.872243 0.989891
vt 0.219744 0.956187
vt 0.000000 1.000000
vt 0.265887 0.990894
vt 0.600000 0.978435
vt 0.583662 1.000000
vt 0.200000 0.978435
vt 0.276408 1.000000
vt 0.792098 1.000000
vt 0.400000 1.000000
vt 0.600000 0.977543
vt 0.264395 0.991158
vt 0.554832 1.000000
vt 0.800000 0.800000
vt 0.309149 1.000000
vt 1.000000 0.973775
vt 0.200000 0.977543
vt 0.800000 0.400000
vt 0.587144 1.000000
vt 0.901687 0.830549
vt 0.600000 0.973775
vt 0.800000 0.000000
vt 0.310828 1.000000
vt 0.200000 0.973775
vt 0.865140 1.000000
vt 0.400000 0.200000
vt 0.920436 0.991158
vt 0.600000 0.978509
vt 0.255456 0.989891
vt 0.000000 0.200000
vt 1.000000 0.978435
vt 0.200000 0.978509
vt 0.856496 1.000000
vt 0.200000 0.600000
vt 0.245050 0.991180
vt 0.541171 1.000000
vt 0.914687 0.832337
vt 0.578357 0.235266
vt 0.749229 0.235266
vt 0.749229 0.406138
vt 0.749229 0.747883
vt 0.578357 0.747883
vt 0.236612 0.406138
vt 0.236612 0.235266
vt 0.407484 0.235266
vt 0.236612 0.747883
vt 0.309149 0.728000
vt 0.290245 0.755654
vn 0.0000 -1.0000 0.0000
vn 0.0000 0.0000 1.0000
vn -1.0000 0.0000 0.0000
vn 1.0000 0.0000 0.0000
vn 0.0000 0.0000 -1.0000
vn 0.0000 1.0000 0.0000
usemtl WallMaterial
s off
f 2/1/1 6/2/1 8/3/1
f 19/4/2 50/5/2 52/6/2
f 7/7/2 10/8/2 6/9/2
f 6/10/3 9/11/3 8/3/3
f 2/1/4 12/12/4 7/13/4
f 8/14/5 11/15/5 2/16/5
f 11/17/4 14/18/4 32/19/4
f 9/20/5 21/21/5 28/22/5
f 12/23/2 18/24/2 39/25/2
f 10/26/3 15/27/3 34/28/3
f 19/29/6 32/30/6 14/31/6
f 3/32/2 59/33/2 18/24/2
f 20/34/6 39/35/6 18/36/6
f 17/37/6 26/38/6 19/29/6
f 40/39/5 83/40/5 38/41/5
f 33/42/6 15/43/6 23/44/6
f 23/45/4 67/46/4 22/47/4
f 21/21/5 41/48/5 43/49/5
f 25/50/4 46/51/4 26/52/4
f 28/53/6 24/54/6 27/55/6
f 43/56/6 42/57/6 44/58/6
f 30/59/6 16/60/6 29/61/6
f 31/62/5 56/63/5 32/64/5
f 34/28/3 71/65/3 35/66/3
f 36/67/6 13/68/6 35/69/6
f 38/70/6 22/71/6 37/72/6
f 38/41/5 64/73/5 40/39/5
f 13/74/3 41/75/3 4/76/3
f 24/77/2 42/78/2 13/79/2
f 21/80/4 44/81/4 24/82/4
f 45/83/6 47/84/6 46/85/6
f 28/22/5 45/86/5 25/87/5
f 27/88/3 48/89/3 28/90/3
f 26/91/2 47/92/2 27/93/2
f 51/94/6 50/95/6 49/96/6
f 19/97/3 51/98/3 17/99/3
f 1/100/4 50/101/4 14/18/4
f 17/102/5 49/103/5 1/104/5
f 55/105/6 53/106/6 56/107/6
f 30/108/3 55/109/3 31/110/3
f 30/111/2 53/112/2 54/113/2
f 32/19/4 53/114/4 29/115/4
f 60/116/6 57/117/6 58/118/6
f 20/119/5 58/120/5 16/121/5
f 16/122/4 57/123/4 3/124/4
f 18/125/3 60/126/3 20/127/3
f 64/128/6 61/129/6 63/130/6
f 37/131/3 62/132/3 38/133/3
f 39/25/2 61/134/2 37/135/2
f 40/136/4 63/137/4 39/138/4
f 68/139/6 65/140/6 67/141/6
f 5/142/3 66/143/3 15/27/3
f 22/144/2 65/145/2 5/146/2
f 15/147/5 68/148/5 23/149/5
f 69/150/6 71/151/6 70/152/6
f 33/153/2 70/154/2 34/155/2
f 36/156/4 69/157/4 33/158/4
f 36/159/5 71/160/5 72/161/5
f 80/162/6 78/163/6 82/164/6
f 26/91/2 73/165/2 19/4/2
f 33/158/4 82/166/4 36/156/4
f 38/41/5 75/167/5 23/149/5
f 30/108/3 74/168/3 20/127/3
f 19/97/3 80/169/3 31/110/3
f 36/156/4 76/170/4 24/82/4
f 40/39/5 74/171/5 84/172/5
f 27/93/2 76/173/2 78/174/2
f 31/110/3 79/175/3 30/108/3
f 23/45/4 81/176/4 33/158/4
f 27/93/2 77/177/2 26/91/2
f 2/1/1 7/178/1 6/2/1
f 19/4/2 14/179/2 50/5/2
f 7/7/2 12/180/2 10/8/2
f 6/10/3 10/181/3 9/11/3
f 2/1/4 11/182/4 12/12/4
f 8/14/5 9/183/5 11/15/5
f 3/124/4 12/184/4 16/122/4
f 12/184/4 11/17/4 29/115/4
f 16/122/4 12/184/4 29/115/4
f 11/17/4 1/100/4 14/18/4
f 32/19/4 29/115/4 11/17/4
f 1/104/5 11/185/5 17/102/5
f 11/185/5 9/20/5 25/87/5
f 17/102/5 11/185/5 25/87/5
f 9/20/5 4/186/5 21/21/5
f 28/22/5 25/87/5 9/20/5
f 5/146/2 10/187/2 22/144/2
f 10/187/2 12/23/2 37/135/2
f 22/144/2 10/187/2 37/135/2
f 12/23/2 3/32/2 18/24/2
f 39/25/2 37/135/2 12/23/2
f 4/76/3 9/188/3 13/74/3
f 9/188/3 10/26/3 35/66/3
f 13/74/3 9/188/3 35/66/3
f 10/26/3 5/142/3 15/27/3
f 34/28/3 35/66/3 10/26/3
f 19/29/6 31/189/6 32/30/6
f 3/32/2 57/190/2 59/33/2
f 20/34/6 40/191/6 39/35/6
f 17/37/6 25/192/6 26/38/6
f 40/39/5 84/172/5 83/40/5
f 33/42/6 34/193/6 15/43/6
f 23/45/4 68/194/4 67/46/4
f 21/21/5 4/186/5 41/48/5
f 25/50/4 45/195/4 46/51/4
f 28/53/6 21/196/6 24/54/6
f 43/56/6 41/197/6 42/57/6
f 30/59/6 20/34/6 16/60/6
f 31/62/5 55/198/5 56/63/5
f 34/28/3 70/199/3 71/65/3
f 36/67/6 24/54/6 13/68/6
f 38/70/6 23/44/6 22/71/6
f 38/41/5 62/200/5 64/73/5
f 13/74/3 42/201/3 41/75/3
f 24/77/2 44/202/2 42/78/2
f 21/80/4 43/203/4 44/81/4
f 45/83/6 48/204/6 47/84/6
f 28/22/5 48/205/5 45/86/5
f 27/88/3 47/206/3 48/89/3
f 26/91/2 46/207/2 47/92/2
f 51/94/6 52/208/6 50/95/6
f 19/97/3 52/209/3 51/98/3
f 1/100/4 49/210/4 50/101/4
f 17/102/5 51/211/5 49/103/5
f 55/105/6 54/212/6 53/106/6
f 30/108/3 54/213/3 55/109/3
f 30/111/2 29/214/2 53/112/2
f 32/19/4 56/215/4 53/114/4
f 60/116/6 59/216/6 57/117/6
f 20/119/5 60/217/5 58/120/5
f 16/122/4 58/218/4 57/123/4
f 18/125/3 59/219/3 60/126/3
f 64/128/6 62/220/6 61/129/6
f 37/131/3 61/221/3 62/132/3
f 39/25/2 63/222/2 61/134/2
f 40/136/4 64/223/4 63/137/4
f 68/139/6 66/224/6 65/140/6
f 5/142/3 65/225/3 66/143/3
f 22/144/2 67/226/2 65/145/2
f 15/147/5 66/227/5 68/148/5
f 69/150/6 72/228/6 71/151/6
f 33/153/2 69/229/2 70/154/2
f 36/156/4 72/230/4 69/157/4
f 36/159/5 35/231/5 71/160/5
f 84/232/6 74/233/6 79/234/6
f 80/162/6 73/235/6 77/236/6
f 84/232/6 79/234/6 80/162/6
f 81/237/6 75/238/6 83/239/6
f 83/239/6 84/232/6 80/162/6
f 80/162/6 77/236/6 78/163/6
f 78/163/6 76/240/6 82/164/6
f 82/164/6 81/237/6 83/239/6
f 83/239/6 80/162/6 82/164/6
f 26/91/2 77/177/2 73/165/2
f 33/158/4 81/176/4 82/166/4
f 38/41/5 83/40/5 75/167/5
f 30/108/3 79/175/3 74/168/3
f 19/97/3 73/241/3 80/169/3
f 36/156/4 82/166/4 76/170/4
f 40/39/5 20/119/5 74/171/5
f 27/93/2 24/77/2 76/173/2
f 31/110/3 80/169/3 79/175/3
f 23/45/4 75/242/4 81/176/4
f 27/93/2 78/174/2 77/177/2
